<svg width="20" height="22" viewBox="0 0 20 22" fill="none" xmlns="http://www.w3.org/2000/svg">
<g id="Line/bill">
<path id="Vector (Stroke)" fill-rule="evenodd" clip-rule="evenodd" d="M1 1.6665C1 1.11422 1.44772 0.666504 2 0.666504H18C18.5523 0.666504 19 1.11422 19 1.6665V20.3332C19 20.6798 18.8205 21.0016 18.5257 21.1838C18.2309 21.366 17.8628 21.3826 17.5528 21.2276L15.3333 20.1179L13.1139 21.2276C12.8324 21.3684 12.501 21.3684 12.2195 21.2276L10 20.1179L7.78055 21.2276C7.49902 21.3684 7.16765 21.3684 6.88612 21.2276L4.66667 20.1179L2.44721 21.2276C2.13723 21.3826 1.76909 21.366 1.47427 21.1838C1.17945 21.0016 1 20.6798 1 20.3332V1.6665ZM3 2.6665V18.7151L4.21945 18.1054C4.50098 17.9646 4.83235 17.9646 5.11388 18.1054L7.33333 19.2151L9.55279 18.1054C9.83431 17.9646 10.1657 17.9646 10.4472 18.1054L12.6667 19.2151L14.8861 18.1054C15.1676 17.9646 15.499 17.9646 15.7805 18.1054L17 18.7151V2.6665H3ZM8 7.99984H5.33333V5.99984H8V7.99984ZM14.6667 7.99984H10.6667V5.99984H14.6667V7.99984ZM8 11.9998H5.33333V9.99984H8V11.9998ZM14.6667 11.9998H10.6667V9.99984H14.6667V11.9998ZM14.6667 15.9998H10.6667V13.9998H14.6667V15.9998Z" fill="white"/>
</g>
</svg>
