<svg width="366" height="199" viewBox="0 0 366 199" fill="none" xmlns="http://www.w3.org/2000/svg">
<line opacity="0.1" x1="0.5" y1="160.5" x2="365.5" y2="160.5" stroke="#24373D" stroke-linecap="round" stroke-linejoin="round" stroke-dasharray="8 8"/>
<line opacity="0.1" x1="0.5" y1="120.5" x2="365.5" y2="120.5" stroke="#24373D" stroke-linecap="round" stroke-linejoin="round" stroke-dasharray="8 8"/>
<line opacity="0.1" x1="0.5" y1="80.5" x2="365.5" y2="80.5" stroke="#24373D" stroke-linecap="round" stroke-linejoin="round" stroke-dasharray="8 8"/>
<line opacity="0.1" x1="0.5" y1="40.5" x2="365.5" y2="40.5" stroke="#24373D" stroke-linecap="round" stroke-linejoin="round" stroke-dasharray="8 8"/>
<line opacity="0.1" x1="0.5" y1="0.5" x2="365.5" y2="0.5" stroke="#24373D" stroke-linecap="round" stroke-linejoin="round" stroke-dasharray="8 8"/>
<path d="M39.9445 190.55H34.7365L33.6585 193H32.2165L36.6545 183.2H38.0405L42.4925 193H41.0225L39.9445 190.55ZM39.4545 189.43L37.3405 184.628L35.2265 189.43H39.4545ZM47.6924 185.51C48.411 185.51 49.055 185.669 49.6244 185.986C50.1937 186.303 50.637 186.747 50.9544 187.316C51.281 187.885 51.4444 188.543 51.4444 189.29C51.4444 190.037 51.281 190.699 50.9544 191.278C50.637 191.847 50.1937 192.291 49.6244 192.608C49.055 192.925 48.411 193.084 47.6924 193.084C47.1604 193.084 46.6704 192.981 46.2224 192.776C45.7837 192.571 45.4104 192.272 45.1024 191.88V195.716H43.7584V185.58H45.0464V186.756C45.345 186.345 45.723 186.037 46.1804 185.832C46.6377 185.617 47.1417 185.51 47.6924 185.51ZM47.5804 191.908C48.0564 191.908 48.481 191.801 48.8544 191.586C49.237 191.362 49.5357 191.054 49.7504 190.662C49.9744 190.261 50.0864 189.803 50.0864 189.29C50.0864 188.777 49.9744 188.324 49.7504 187.932C49.5357 187.531 49.237 187.223 48.8544 187.008C48.481 186.793 48.0564 186.686 47.5804 186.686C47.1137 186.686 46.689 186.798 46.3064 187.022C45.933 187.237 45.6344 187.54 45.4104 187.932C45.1957 188.324 45.0884 188.777 45.0884 189.29C45.0884 189.803 45.1957 190.261 45.4104 190.662C45.625 191.054 45.9237 191.362 46.3064 191.586C46.689 191.801 47.1137 191.908 47.5804 191.908ZM54.5893 186.826C54.8227 186.397 55.168 186.07 55.6253 185.846C56.0827 185.622 56.638 185.51 57.2913 185.51V186.812C57.2167 186.803 57.114 186.798 56.9833 186.798C56.2553 186.798 55.6813 187.017 55.2613 187.456C54.8507 187.885 54.6453 188.501 54.6453 189.304V193H53.3013V185.58H54.5893V186.826Z" fill="#B3B3B3"/>
<path d="M145.139 193.112C144.551 193.112 144.005 192.991 143.501 192.748C142.997 192.496 142.591 192.146 142.283 191.698L143.095 190.746C143.637 191.521 144.318 191.908 145.139 191.908C145.69 191.908 146.105 191.74 146.385 191.404C146.675 191.068 146.819 190.573 146.819 189.92V184.418H143.277V183.2H148.205V189.85C148.205 190.933 147.944 191.749 147.421 192.3C146.908 192.841 146.147 193.112 145.139 193.112ZM157.777 185.58V193H156.503V191.88C156.232 192.263 155.873 192.561 155.425 192.776C154.986 192.981 154.506 193.084 153.983 193.084C152.994 193.084 152.214 192.813 151.645 192.272C151.076 191.721 150.791 190.914 150.791 189.85V185.58H152.135V189.696C152.135 190.415 152.308 190.961 152.653 191.334C152.998 191.698 153.493 191.88 154.137 191.88C154.846 191.88 155.406 191.665 155.817 191.236C156.228 190.807 156.433 190.2 156.433 189.416V185.58H157.777ZM164.298 185.51C165.24 185.51 165.987 185.785 166.538 186.336C167.098 186.877 167.378 187.675 167.378 188.73V193H166.034V188.884C166.034 188.165 165.861 187.624 165.516 187.26C165.17 186.896 164.676 186.714 164.032 186.714C163.304 186.714 162.73 186.929 162.31 187.358C161.89 187.778 161.68 188.385 161.68 189.178V193H160.336V185.58H161.624V186.7C161.894 186.317 162.258 186.023 162.716 185.818C163.182 185.613 163.71 185.51 164.298 185.51Z" fill="#B3B3B3"/>
<path d="M258.085 190.55H252.877L251.799 193H250.357L254.795 183.2H256.181L260.633 193H259.163L258.085 190.55ZM257.595 189.43L255.481 184.628L253.367 189.43H257.595ZM268.678 185.58V193H267.404V191.88C267.134 192.263 266.774 192.561 266.326 192.776C265.888 192.981 265.407 193.084 264.884 193.084C263.895 193.084 263.116 192.813 262.546 192.272C261.977 191.721 261.692 190.914 261.692 189.85V185.58H263.036V189.696C263.036 190.415 263.209 190.961 263.554 191.334C263.9 191.698 264.394 191.88 265.038 191.88C265.748 191.88 266.308 191.665 266.718 191.236C267.129 190.807 267.334 190.2 267.334 189.416V185.58H268.678ZM278.335 185.58V191.992C278.335 193.289 278.013 194.246 277.369 194.862C276.725 195.487 275.764 195.8 274.485 195.8C273.785 195.8 273.118 195.702 272.483 195.506C271.848 195.319 271.335 195.049 270.943 194.694L271.587 193.658C271.932 193.957 272.357 194.19 272.861 194.358C273.374 194.535 273.902 194.624 274.443 194.624C275.311 194.624 275.95 194.419 276.361 194.008C276.781 193.597 276.991 192.972 276.991 192.132V191.544C276.674 191.927 276.282 192.216 275.815 192.412C275.358 192.599 274.858 192.692 274.317 192.692C273.608 192.692 272.964 192.543 272.385 192.244C271.816 191.936 271.368 191.511 271.041 190.97C270.714 190.419 270.551 189.794 270.551 189.094C270.551 188.394 270.714 187.773 271.041 187.232C271.368 186.681 271.816 186.257 272.385 185.958C272.964 185.659 273.608 185.51 274.317 185.51C274.877 185.51 275.395 185.613 275.871 185.818C276.356 186.023 276.753 186.327 277.061 186.728V185.58H278.335ZM274.471 191.516C274.956 191.516 275.39 191.413 275.773 191.208C276.165 191.003 276.468 190.718 276.683 190.354C276.907 189.981 277.019 189.561 277.019 189.094C277.019 188.375 276.781 187.797 276.305 187.358C275.829 186.91 275.218 186.686 274.471 186.686C273.715 186.686 273.099 186.91 272.623 187.358C272.147 187.797 271.909 188.375 271.909 189.094C271.909 189.561 272.016 189.981 272.231 190.354C272.455 190.718 272.758 191.003 273.141 191.208C273.533 191.413 273.976 191.516 274.471 191.516Z" fill="#B3B3B3"/>
<path d="M95.8451 193L95.8311 185.86L92.2891 191.81H91.6451L88.1031 185.902V193H86.7591V183.2H87.9071L91.9951 190.088L96.0271 183.2H97.1751L97.1891 193H95.8451ZM102.636 185.51C103.663 185.51 104.447 185.762 104.988 186.266C105.539 186.77 105.814 187.521 105.814 188.52V193H104.54V192.02C104.316 192.365 103.994 192.631 103.574 192.818C103.163 192.995 102.673 193.084 102.104 193.084C101.273 193.084 100.606 192.883 100.102 192.482C99.6075 192.081 99.3602 191.553 99.3602 190.9C99.3602 190.247 99.5982 189.724 100.074 189.332C100.55 188.931 101.306 188.73 102.342 188.73H104.47V188.464C104.47 187.885 104.302 187.442 103.966 187.134C103.63 186.826 103.135 186.672 102.482 186.672C102.043 186.672 101.614 186.747 101.194 186.896C100.774 187.036 100.419 187.227 100.13 187.47L99.5702 186.462C99.9528 186.154 100.41 185.921 100.942 185.762C101.474 185.594 102.039 185.51 102.636 185.51ZM102.328 192.048C102.841 192.048 103.285 191.936 103.658 191.712C104.031 191.479 104.302 191.152 104.47 190.732V189.696H102.398C101.259 189.696 100.69 190.079 100.69 190.844C100.69 191.217 100.835 191.511 101.124 191.726C101.413 191.941 101.815 192.048 102.328 192.048ZM114.731 185.58L111.133 193.742C110.815 194.498 110.442 195.03 110.013 195.338C109.593 195.646 109.084 195.8 108.487 195.8C108.123 195.8 107.768 195.739 107.423 195.618C107.087 195.506 106.807 195.338 106.583 195.114L107.157 194.106C107.539 194.47 107.983 194.652 108.487 194.652C108.813 194.652 109.084 194.563 109.299 194.386C109.523 194.218 109.723 193.924 109.901 193.504L110.139 192.986L106.863 185.58H108.263L110.853 191.516L113.415 185.58H114.731Z" fill="#B3B3B3"/>
<path d="M199.039 193.112C198.451 193.112 197.905 192.991 197.401 192.748C196.897 192.496 196.491 192.146 196.183 191.698L196.995 190.746C197.536 191.521 198.217 191.908 199.039 191.908C199.589 191.908 200.005 191.74 200.285 191.404C200.574 191.068 200.719 190.573 200.719 189.92V184.418H197.177V183.2H202.105V189.85C202.105 190.933 201.843 191.749 201.321 192.3C200.807 192.841 200.047 193.112 199.039 193.112ZM211.676 185.58V193H210.402V191.88C210.132 192.263 209.772 192.561 209.324 192.776C208.886 192.981 208.405 193.084 207.882 193.084C206.893 193.084 206.114 192.813 205.544 192.272C204.975 191.721 204.69 190.914 204.69 189.85V185.58H206.034V189.696C206.034 190.415 206.207 190.961 206.552 191.334C206.898 191.698 207.392 191.88 208.036 191.88C208.746 191.88 209.306 191.665 209.716 191.236C210.127 190.807 210.332 190.2 210.332 189.416V185.58H211.676ZM214.235 182.612H215.579V193H214.235V182.612ZM224.711 185.58L221.113 193.742C220.796 194.498 220.422 195.03 219.993 195.338C219.573 195.646 219.064 195.8 218.467 195.8C218.103 195.8 217.748 195.739 217.403 195.618C217.067 195.506 216.787 195.338 216.563 195.114L217.137 194.106C217.52 194.47 217.963 194.652 218.467 194.652C218.794 194.652 219.064 194.563 219.279 194.386C219.503 194.218 219.704 193.924 219.881 193.504L220.119 192.986L216.843 185.58H218.243L220.833 191.516L223.395 185.58H224.711Z" fill="#B3B3B3"/>
<path d="M311.421 193.112C310.683 193.112 309.969 193 309.279 192.776C308.597 192.543 308.061 192.244 307.669 191.88L308.187 190.788C308.56 191.124 309.036 191.399 309.615 191.614C310.203 191.819 310.805 191.922 311.421 191.922C312.233 191.922 312.839 191.787 313.241 191.516C313.642 191.236 313.843 190.867 313.843 190.41C313.843 190.074 313.731 189.803 313.507 189.598C313.292 189.383 313.021 189.22 312.695 189.108C312.377 188.996 311.925 188.87 311.337 188.73C310.599 188.553 310.002 188.375 309.545 188.198C309.097 188.021 308.709 187.75 308.383 187.386C308.065 187.013 307.907 186.513 307.907 185.888C307.907 185.365 308.042 184.894 308.313 184.474C308.593 184.054 309.013 183.718 309.573 183.466C310.133 183.214 310.828 183.088 311.659 183.088C312.237 183.088 312.807 183.163 313.367 183.312C313.927 183.461 314.407 183.676 314.809 183.956L314.347 185.076C313.936 184.815 313.497 184.619 313.031 184.488C312.564 184.348 312.107 184.278 311.659 184.278C310.865 184.278 310.268 184.423 309.867 184.712C309.475 185.001 309.279 185.375 309.279 185.832C309.279 186.168 309.391 186.443 309.615 186.658C309.839 186.863 310.114 187.027 310.441 187.148C310.777 187.26 311.229 187.381 311.799 187.512C312.536 187.689 313.129 187.867 313.577 188.044C314.025 188.221 314.407 188.492 314.725 188.856C315.051 189.22 315.215 189.71 315.215 190.326C315.215 190.839 315.075 191.311 314.795 191.74C314.515 192.16 314.09 192.496 313.521 192.748C312.951 192.991 312.251 193.112 311.421 193.112ZM323.77 189.332C323.77 189.435 323.761 189.57 323.742 189.738H317.722C317.806 190.391 318.091 190.919 318.576 191.32C319.071 191.712 319.682 191.908 320.41 191.908C321.297 191.908 322.011 191.609 322.552 191.012L323.294 191.88C322.958 192.272 322.538 192.571 322.034 192.776C321.539 192.981 320.984 193.084 320.368 193.084C319.584 193.084 318.889 192.925 318.282 192.608C317.675 192.281 317.204 191.829 316.868 191.25C316.541 190.671 316.378 190.018 316.378 189.29C316.378 188.571 316.537 187.923 316.854 187.344C317.181 186.765 317.624 186.317 318.184 186C318.753 185.673 319.393 185.51 320.102 185.51C320.811 185.51 321.441 185.673 321.992 186C322.552 186.317 322.986 186.765 323.294 187.344C323.611 187.923 323.77 188.585 323.77 189.332ZM320.102 186.644C319.458 186.644 318.917 186.84 318.478 187.232C318.049 187.624 317.797 188.137 317.722 188.772H322.482C322.407 188.147 322.151 187.638 321.712 187.246C321.283 186.845 320.746 186.644 320.102 186.644ZM329.57 185.51C330.289 185.51 330.933 185.669 331.502 185.986C332.072 186.303 332.515 186.747 332.832 187.316C333.159 187.885 333.322 188.543 333.322 189.29C333.322 190.037 333.159 190.699 332.832 191.278C332.515 191.847 332.072 192.291 331.502 192.608C330.933 192.925 330.289 193.084 329.57 193.084C329.038 193.084 328.548 192.981 328.1 192.776C327.662 192.571 327.288 192.272 326.98 191.88V195.716H325.636V185.58H326.924V186.756C327.223 186.345 327.601 186.037 328.058 185.832C328.516 185.617 329.02 185.51 329.57 185.51ZM329.458 191.908C329.934 191.908 330.359 191.801 330.732 191.586C331.115 191.362 331.414 191.054 331.628 190.662C331.852 190.261 331.964 189.803 331.964 189.29C331.964 188.777 331.852 188.324 331.628 187.932C331.414 187.531 331.115 187.223 330.732 187.008C330.359 186.793 329.934 186.686 329.458 186.686C328.992 186.686 328.567 186.798 328.184 187.022C327.811 187.237 327.512 187.54 327.288 187.932C327.074 188.324 326.966 188.777 326.966 189.29C326.966 189.803 327.074 190.261 327.288 190.662C327.503 191.054 327.802 191.362 328.184 191.586C328.567 191.801 328.992 191.908 329.458 191.908Z" fill="#B3B3B3"/>
<path d="M100 81L45.5 103V156.5H321.5V49.5L266 80L210.5 69.5L155.5 84.5L100 81Z" fill="url(#paint0_linear_134_321)"/>
<path d="M45.5 103L100 81L155.5 84.5L210.5 69.5L266 80L321.5 49.5" stroke="#6C71FF" stroke-width="4"/>
<rect x="33" y="57" width="24" height="104" rx="4" fill="#57AEFE"/>
<rect x="143" y="41" width="24" height="120" rx="4" fill="#57AEFE"/>
<rect x="253" y="42" width="24" height="119" rx="4" fill="#57AEFE"/>
<rect x="88" y="31" width="24" height="130" rx="4" fill="#57AEFE"/>
<rect x="198" y="21" width="24" height="140" rx="4" fill="#57AEFE"/>
<rect x="308" y="6" width="24" height="155" rx="4" fill="#57AEFE"/>
<defs>
<linearGradient id="paint0_linear_134_321" x1="183.5" y1="49.5" x2="183.5" y2="156.5" gradientUnits="userSpaceOnUse">
<stop stop-color="#6C71FF" stop-opacity="0.3"/>
<stop offset="1" stop-color="white" stop-opacity="0"/>
</linearGradient>
</defs>
</svg>
