<svg width="24" height="24" viewBox="0 0 24 24" fill="none" xmlns="http://www.w3.org/2000/svg">
<g id="Line/flash">
<g id="Vector">
<path fill-rule="evenodd" clip-rule="evenodd" d="M15.5912 0.955838C16.0606 1.22159 16.295 1.76785 16.1642 2.29112L14.5369 8.80008H21C21.4853 8.80008 21.9229 9.09245 22.1086 9.54086C22.2944 9.98927 22.1917 10.5054 21.8485 10.8486L9.84852 22.8486C9.46712 23.23 8.87812 23.3101 8.40876 23.0443C7.93939 22.7786 7.70501 22.2323 7.83582 21.709L9.46306 15.2001H3C2.51464 15.2001 2.07708 14.9077 1.89134 14.4593C1.7056 14.0109 1.80827 13.4947 2.15147 13.1516L14.1515 1.15155C14.5329 0.770152 15.1219 0.690087 15.5912 0.955838ZM5.89705 12.8001H11C11.3695 12.8001 11.7184 12.9703 11.9458 13.2616C12.1733 13.5528 12.2538 13.9326 12.1642 14.2911L11.2149 18.0881L18.1029 11.2001H13C12.6305 11.2001 12.2816 11.0298 12.0541 10.7386C11.8267 10.4473 11.7462 10.0675 11.8358 9.70903L12.7851 5.91206L5.89705 12.8001Z" fill="white"/>
<path fill-rule="evenodd" clip-rule="evenodd" d="M1.15152 1.15155C1.62015 0.682921 2.37995 0.682921 2.84858 1.15155L22.8486 21.1516C23.3172 21.6202 23.3172 22.38 22.8486 22.8486C22.3799 23.3172 21.6201 23.3172 21.1515 22.8486L1.15152 2.84861C0.682892 2.37998 0.682892 1.62018 1.15152 1.15155Z" fill="white"/>
</g>
</g>
</svg>
