<svg width="32" height="34" viewBox="0 0 32 34" fill="none" xmlns="http://www.w3.org/2000/svg">
<g id="Line/bill">
<path id="Vector (Stroke)" fill-rule="evenodd" clip-rule="evenodd" d="M1.59998 2.06655C1.59998 1.1829 2.31632 0.466553 3.19998 0.466553H28.8C29.6836 0.466553 30.4 1.1829 30.4 2.06655V31.9332C30.4 32.4877 30.1129 33.0027 29.6411 33.2943C29.1694 33.5858 28.5804 33.6123 28.0844 33.3643L24.5333 31.5887L20.9822 33.3643C20.5317 33.5895 20.0015 33.5895 19.5511 33.3643L16 31.5887L12.4488 33.3643C11.9984 33.5895 11.4682 33.5895 11.0178 33.3643L7.46664 31.5887L3.91552 33.3643C3.41954 33.6123 2.83051 33.5858 2.35881 33.2943C1.8871 33.0027 1.59998 32.4877 1.59998 31.9332V2.06655ZM4.79998 3.66655V29.3444L6.7511 28.3688C7.20154 28.1436 7.73174 28.1436 8.18218 28.3688L11.7333 30.1444L15.2844 28.3688C15.7349 28.1436 16.2651 28.1436 16.7155 28.3688L20.2666 30.1444L23.8178 28.3688C24.2682 28.1436 24.7984 28.1436 25.2488 28.3688L27.2 29.3444V3.66655H4.79998ZM12.8 12.1999H8.53331V8.99989H12.8V12.1999ZM23.4666 12.1999H17.0666V8.99989H23.4666V12.1999ZM12.8 18.5999H8.53331V15.3999H12.8V18.5999ZM23.4666 18.5999H17.0666V15.3999H23.4666V18.5999ZM23.4666 24.9999H17.0666V21.7999H23.4666V24.9999Z" fill="url(#paint0_linear_149_3)"/>
</g>
<defs>
<linearGradient id="paint0_linear_149_3" x1="16" y1="0.466546" x2="2.53361" y2="0.591152" gradientUnits="userSpaceOnUse">
<stop stop-color="#FE9357"/>
<stop offset="1" stop-color="#FF6BA1"/>
</linearGradient>
</defs>
</svg>
