<svg width="284" height="209" viewBox="0 0 284 209" fill="none" xmlns="http://www.w3.org/2000/svg">
<path d="M246.707 188.255C239.398 188.255 233.472 182.329 233.472 175.02V99.8895C233.472 92.5802 239.398 86.6548 246.707 86.6548C254.017 86.6548 259.942 92.5802 259.942 99.8895V175.02C259.942 182.329 254.017 188.255 246.707 188.255Z" fill="#C4B6FF" stroke="#221B38" stroke-width="0.415"/>
<path d="M264.54 208.336H19.3841C18.2383 208.336 17.3091 207.407 17.3091 206.261C17.3091 205.115 18.2383 204.186 19.3841 204.186H264.54C265.687 204.186 266.615 205.115 266.615 206.261C266.615 207.407 265.687 208.336 264.54 208.336Z" fill="#C4B6FF"/>
<path d="M179.987 192.154H103.939C97.3765 192.154 92.0566 186.834 92.0566 180.272V29.6901C92.0566 23.1277 97.3765 17.8083 103.939 17.8083H179.987C186.549 17.8083 191.869 23.1277 191.869 29.6901V180.272C191.869 186.834 186.549 192.154 179.987 192.154Z" fill="#C4B6FF" stroke="#221B38" stroke-width="0.415"/>
<path d="M108.908 182.004H105.826C104.892 182.004 104.135 181.247 104.135 180.313V178.609C104.135 177.675 104.892 176.918 105.826 176.918H108.908C109.842 176.918 110.599 177.675 110.599 178.609V180.313C110.599 181.247 109.842 182.004 108.908 182.004Z" stroke="#221B38" stroke-width="0.415"/>
<path d="M178.098 182.004H175.017C174.083 182.004 173.326 181.247 173.326 180.313V178.609C173.326 177.675 174.083 176.918 175.017 176.918H178.098C179.032 176.918 179.789 177.675 179.789 178.609V180.313C179.789 181.247 179.032 182.004 178.098 182.004Z" stroke="#221B38" stroke-width="0.415"/>
<path d="M141.962 186.677C145.948 186.677 149.179 183.446 149.179 179.461C149.179 175.475 145.948 172.244 141.962 172.244C137.977 172.244 134.746 175.475 134.746 179.461C134.746 183.446 137.977 186.677 141.962 186.677Z" stroke="#221B38" stroke-width="0.415"/>
<path d="M182.526 36.4248H171.44C170.387 36.4248 169.533 35.5707 169.533 34.5174C169.533 33.4642 170.387 32.6101 171.44 32.6101H182.526C183.579 32.6101 184.433 33.4642 184.433 34.5174C184.433 35.5707 183.579 36.4248 182.526 36.4248Z" stroke="#221B38" stroke-width="0.415"/>
<path d="M101.134 36.16C102.041 36.16 102.776 35.4246 102.776 34.5178C102.776 33.6106 102.041 32.8752 101.134 32.8752C100.227 32.8752 99.4912 33.6106 99.4912 34.5178C99.4912 35.4246 100.227 36.16 101.134 36.16Z" stroke="#221B38" stroke-width="0.415"/>
<path d="M108.551 36.16C109.458 36.16 110.193 35.4246 110.193 34.5178C110.193 33.6106 109.458 32.8752 108.551 32.8752C107.644 32.8752 106.909 33.6106 106.909 34.5178C106.909 35.4246 107.644 36.16 108.551 36.16Z" stroke="#221B38" stroke-width="0.415"/>
<path d="M115.968 36.16C116.875 36.16 117.61 35.4246 117.61 34.5178C117.61 33.6106 116.875 32.8752 115.968 32.8752C115.061 32.8752 114.325 33.6106 114.325 34.5178C114.325 35.4246 115.061 36.16 115.968 36.16Z" stroke="#221B38" stroke-width="0.415"/>
<path d="M70.5141 6.71436H53.3667V9.68119H70.5141V6.71436Z" fill="#C4B6FF"/>
<path d="M70.5141 21.1924H53.3667V24.1588H70.5141V21.1924Z" fill="#C4B6FF"/>
<path d="M85.1362 13.9534H53.3667V16.9202H85.1362V13.9534Z" fill="#C4B6FF"/>
<path d="M42.6956 190.321H23.8442V94.811H42.6956V190.321ZM24.2592 189.856H42.2806V95.2754H24.2592V189.856Z" fill="#C4B6FF"/>
<path d="M40.9684 24.7412H31.7525C31.1541 24.7412 30.6689 24.256 30.6689 23.6576C30.6689 20.768 33.0116 18.4255 35.9009 18.4255H36.8201C39.7097 18.4255 42.052 20.768 42.052 23.6576C42.052 24.256 41.5668 24.7412 40.9684 24.7412Z" stroke="#221B38" stroke-width="0.415"/>
<path d="M36.3607 17.0305C38.0601 17.0305 39.4379 15.6528 39.4379 13.9532C39.4379 12.2537 38.0601 10.876 36.3607 10.876C34.6613 10.876 33.2834 12.2537 33.2834 13.9532C33.2834 15.6528 34.6613 17.0305 36.3607 17.0305Z" stroke="#221B38" stroke-width="0.415"/>
<path d="M218.923 151.697H212.746C212.345 151.697 212.02 151.372 212.02 150.971C212.02 149.034 213.59 147.464 215.527 147.464H216.143C218.079 147.464 219.649 149.034 219.649 150.971C219.649 151.372 219.324 151.697 218.923 151.697Z" stroke="#221B38" stroke-width="0.415"/>
<path d="M215.835 146.529C216.974 146.529 217.898 145.606 217.898 144.466C217.898 143.327 216.974 142.404 215.835 142.404C214.696 142.404 213.772 143.327 213.772 144.466C213.772 145.606 214.696 146.529 215.835 146.529Z" stroke="#221B38" stroke-width="0.415"/>
<path d="M230.579 151.697H224.402C224 151.697 223.675 151.372 223.675 150.971C223.675 149.034 225.245 147.464 227.182 147.464H227.798C229.735 147.464 231.305 149.034 231.305 150.971C231.305 151.372 230.98 151.697 230.579 151.697Z" stroke="#221B38" stroke-width="0.415"/>
<path d="M227.49 146.529C228.629 146.529 229.553 145.606 229.553 144.466C229.553 143.327 228.629 142.404 227.49 142.404C226.351 142.404 225.427 143.327 225.427 144.466C225.427 145.606 226.351 146.529 227.49 146.529Z" stroke="#221B38" stroke-width="0.415"/>
<path d="M51.4592 48.6228H21.2613C20.2081 48.6228 19.354 47.7687 19.354 46.7154C19.354 45.6622 20.2081 44.8081 21.2613 44.8081H51.4592C52.5125 44.8081 53.3666 45.6622 53.3666 46.7154C53.3666 47.7687 52.5125 48.6228 51.4592 48.6228Z" stroke="#221B38" stroke-width="0.415"/>
<path d="M109.195 168.937H41.6846C37.2383 168.937 33.634 165.333 33.634 160.887V66.2644H117.246V160.887C117.246 165.333 113.641 168.937 109.195 168.937Z" stroke="#221B38" stroke-width="0.415"/>
<path d="M106.187 92.0106H44.6952C44.3104 92.0106 43.9988 91.6989 43.9988 91.3142V85.4129C43.9988 85.0282 44.3104 84.7166 44.6952 84.7166H106.187C106.571 84.7166 106.883 85.0282 106.883 85.4129V91.3142C106.883 91.6989 106.571 92.0106 106.187 92.0106Z" stroke="#221B38" stroke-width="0.415"/>
<path d="M106.187 104.981H44.6952C44.3104 104.981 43.9988 104.67 43.9988 104.285V98.3836C43.9988 97.9993 44.3104 97.6873 44.6952 97.6873H106.187C106.571 97.6873 106.883 97.9993 106.883 98.3836V104.285C106.883 104.67 106.571 104.981 106.187 104.981Z" stroke="#221B38" stroke-width="0.415"/>
<path d="M149.052 119.154H1.82983C1.31623 119.154 0.899902 118.738 0.899902 118.224V110.386C0.899902 109.872 1.31623 109.456 1.82983 109.456H149.052C149.566 109.456 149.982 109.872 149.982 110.386V118.224C149.982 118.738 149.566 119.154 149.052 119.154Z" stroke="#221B38" stroke-width="0.415"/>
<path d="M106.187 130.923H44.6952C44.3104 130.923 43.9988 130.611 43.9988 130.227V124.326C43.9988 123.941 44.3104 123.629 44.6952 123.629H106.187C106.571 123.629 106.883 123.941 106.883 124.326V130.227C106.883 130.611 106.571 130.923 106.187 130.923Z" stroke="#221B38" stroke-width="0.415"/>
<path d="M106.187 143.895H44.6952C44.3104 143.895 43.9988 143.583 43.9988 143.198V137.297C43.9988 136.912 44.3104 136.601 44.6952 136.601H106.187C106.571 136.601 106.883 136.912 106.883 137.297V143.198C106.883 143.583 106.571 143.895 106.187 143.895Z" stroke="#221B38" stroke-width="0.415"/>
<path d="M106.187 156.865H44.6952C44.3104 156.865 43.9988 156.553 43.9988 156.168V150.267C43.9988 149.883 44.3104 149.571 44.6952 149.571H106.187C106.571 149.571 106.883 149.883 106.883 150.267V156.168C106.883 156.553 106.571 156.865 106.187 156.865Z" stroke="#221B38" stroke-width="0.415"/>
<path d="M107.811 48.6228H61.1542C60.101 48.6228 59.2473 47.7687 59.2473 46.7154C59.2473 45.6622 60.101 44.8081 61.1542 44.8081H107.811C108.864 44.8081 109.718 45.6622 109.718 46.7154C109.718 47.7687 108.864 48.6228 107.811 48.6228Z" stroke="#221B38" stroke-width="0.415"/>
<path d="M253.794 77.6326H28.7048C23.5405 77.6326 19.354 73.4461 19.354 68.2814C19.354 63.1172 23.5405 58.9307 28.7048 58.9307H253.794C258.958 58.9307 263.144 63.1172 263.144 68.2814C263.144 73.4461 258.958 77.6326 253.794 77.6326Z" stroke="#221B38" stroke-width="0.415"/>
<path d="M203.177 94.2929C219.018 94.2929 231.859 81.4515 231.859 65.6114C231.859 49.7713 219.018 36.9299 203.177 36.9299C187.337 36.9299 174.496 49.7713 174.496 65.6114C174.496 81.4515 187.337 94.2929 203.177 94.2929Z" stroke="#221B38" stroke-width="0.415"/>
<path d="M247.96 113.733L223.96 85.3765C233.941 74.9061 234.63 58.3766 225.068 47.0803C219.395 40.3781 211.307 36.9294 203.165 36.9294C199.89 36.9294 196.608 37.4855 193.47 38.6143C190.333 39.739 187.341 41.4405 184.647 43.7188C172.558 53.9527 171.052 72.0509 181.286 84.1398C186.959 90.8421 195.047 94.2949 203.194 94.2949C208.767 94.2949 214.37 92.6681 219.237 89.3688L243.241 117.73C244.341 119.033 246.295 119.195 247.599 118.091C248.321 117.481 248.694 116.609 248.694 115.73C248.694 115.024 248.453 114.314 247.96 113.733ZM219.026 84.3349C214.602 88.0823 208.979 90.1449 203.194 90.1449C195.952 90.1449 189.125 86.9784 184.452 81.4589C180.219 76.4582 178.186 70.1087 178.729 63.5766C179.273 57.0486 182.327 51.1183 187.328 46.8853C191.752 43.142 197.375 41.0794 203.165 41.0794C210.402 41.0794 217.233 44.2459 221.902 49.7612C230.642 60.0864 229.351 75.5991 219.026 84.3349Z" stroke="#221B38" stroke-width="0.415"/>
<path d="M206.124 165.557H171.875V131.309H206.124V165.557ZM172.705 164.727H205.294V132.139H172.705V164.727Z" stroke="#221B38" stroke-width="0.415"/>
<path d="M25.2296 34.1024H47.4906C50.3425 34.1024 52.654 31.7909 52.654 28.939V6.67763C52.654 3.82592 50.3425 1.51416 47.4906 1.51416H25.2296C22.3777 1.51416 20.0662 3.82592 20.0662 6.67763V28.939C20.0662 31.7909 22.3777 34.1024 25.2296 34.1024Z" stroke="#221B38" stroke-width="0.415"/>
<path d="M205.709 122.305H172.29C172.061 122.305 171.875 122.119 171.875 121.89C171.875 121.661 172.061 121.475 172.29 121.475H205.709C205.938 121.475 206.124 121.661 206.124 121.89C206.124 122.119 205.938 122.305 205.709 122.305Z" stroke="#221B38" stroke-width="0.415"/>
<path d="M205.709 116.901H172.29C172.061 116.901 171.875 116.716 171.875 116.486C171.875 116.257 172.061 116.071 172.29 116.071H205.709C205.938 116.071 206.124 116.257 206.124 116.486C206.124 116.716 205.938 116.901 205.709 116.901Z" stroke="#221B38" stroke-width="0.415"/>
<path d="M200.302 111.498H172.29C172.061 111.498 171.875 111.312 171.875 111.083C171.875 110.853 172.061 110.668 172.29 110.668H200.302C200.531 110.668 200.717 110.853 200.717 111.083C200.717 111.312 200.531 111.498 200.302 111.498Z" stroke="#221B38" stroke-width="0.415"/>
<path d="M205.709 106.094H172.29C172.061 106.094 171.875 105.908 171.875 105.679C171.875 105.449 172.061 105.264 172.29 105.264H205.709C205.938 105.264 206.124 105.449 206.124 105.679C206.124 105.908 205.938 106.094 205.709 106.094Z" stroke="#221B38" stroke-width="0.415"/>
<path d="M269.181 160.373C268.196 160.373 267.719 159.57 267.258 158.795C266.825 158.067 266.416 157.38 265.621 157.38C264.825 157.38 264.416 158.067 263.983 158.795C263.522 159.57 263.045 160.373 262.059 160.373C261.074 160.373 260.597 159.57 260.135 158.795C259.702 158.067 259.293 157.38 258.497 157.38C257.702 157.38 257.293 158.067 256.86 158.795C256.398 159.57 255.921 160.373 254.936 160.373C253.951 160.373 253.474 159.57 253.012 158.795C252.579 158.067 252.17 157.38 251.375 157.38C250.579 157.38 250.17 158.067 249.737 158.795C249.275 159.57 248.798 160.373 247.813 160.373C246.827 160.373 246.35 159.57 245.889 158.795C245.455 158.067 245.046 157.38 244.25 157.38C243.455 157.38 243.046 158.067 242.613 158.795C242.151 159.57 241.674 160.373 240.689 160.373C239.703 160.373 239.226 159.57 238.764 158.795C238.331 158.067 237.922 157.38 237.126 157.38C236.331 157.38 235.922 158.067 235.489 158.795C235.028 159.57 234.55 160.373 233.565 160.373C232.58 160.373 232.103 159.57 231.641 158.795C231.208 158.067 230.8 157.38 230.004 157.38C229.208 157.38 228.799 158.067 228.366 158.795C227.905 159.57 227.427 160.373 226.442 160.373C225.456 160.373 224.978 159.57 224.516 158.795C224.083 158.067 223.674 157.38 222.878 157.38C222.082 157.38 221.673 158.067 221.24 158.795C220.779 159.57 220.301 160.373 219.316 160.373C218.33 160.373 217.852 159.57 217.39 158.795C216.957 158.067 216.547 157.38 215.751 157.38C214.954 157.38 214.545 158.067 214.112 158.795C213.65 159.57 213.172 160.373 212.186 160.373C212.094 160.373 212.02 160.298 212.02 160.206C212.02 160.114 212.094 160.039 212.186 160.039C212.983 160.039 213.392 159.352 213.825 158.624C214.287 157.849 214.765 157.046 215.751 157.046C216.737 157.046 217.215 157.849 217.676 158.624C218.11 159.352 218.519 160.039 219.316 160.039C220.112 160.039 220.52 159.352 220.954 158.624C221.415 157.849 221.893 157.046 222.878 157.046C223.864 157.046 224.341 157.849 224.803 158.624C225.236 159.352 225.645 160.039 226.442 160.039C227.238 160.039 227.646 159.352 228.08 158.624C228.541 157.849 229.018 157.046 230.004 157.046C230.989 157.046 231.466 157.849 231.927 158.624C232.361 159.352 232.77 160.039 233.565 160.039C234.361 160.039 234.769 159.352 235.202 158.624C235.664 157.849 236.141 157.046 237.126 157.046C238.111 157.046 238.589 157.849 239.051 158.624C239.484 159.352 239.893 160.039 240.689 160.039C241.484 160.039 241.893 159.352 242.326 158.624C242.788 157.849 243.265 157.046 244.25 157.046C245.236 157.046 245.713 157.849 246.175 158.624C246.608 159.352 247.017 160.039 247.813 160.039C248.608 160.039 249.017 159.352 249.45 158.624C249.912 157.849 250.389 157.046 251.375 157.046C252.36 157.046 252.837 157.849 253.299 158.624C253.732 159.352 254.14 160.039 254.936 160.039C255.732 160.039 256.141 159.352 256.574 158.624C257.035 157.849 257.512 157.046 258.497 157.046C259.483 157.046 259.96 157.849 260.422 158.624C260.855 159.352 261.264 160.039 262.059 160.039C262.855 160.039 263.264 159.352 263.697 158.624C264.158 157.849 264.636 157.046 265.621 157.046C266.606 157.046 267.083 157.849 267.544 158.624C267.977 159.352 268.386 160.039 269.181 160.039C269.273 160.039 269.348 160.114 269.348 160.206C269.348 160.298 269.273 160.373 269.181 160.373Z" stroke="#221B38" stroke-width="0.415"/>
<path d="M231.675 4.51315C230.69 4.51315 230.213 3.71129 229.752 2.93532C229.318 2.20762 228.91 1.52042 228.114 1.52042C227.319 1.52042 226.91 2.20795 226.477 2.93532C226.015 3.71129 225.539 4.51315 224.553 4.51315C223.568 4.51315 223.091 3.71129 222.629 2.93532C222.196 2.20795 221.787 1.52042 220.991 1.52042C220.196 1.52042 219.787 2.20762 219.354 2.93532C218.892 3.71129 218.415 4.51315 217.43 4.51315C216.445 4.51315 215.967 3.71129 215.506 2.93532C215.073 2.20795 214.664 1.52042 213.868 1.52042C213.073 1.52042 212.664 2.20795 212.231 2.93532C211.769 3.71129 211.292 4.51315 210.306 4.51315C209.321 4.51315 208.843 3.71129 208.382 2.93532C207.949 2.20795 207.54 1.52042 206.744 1.52042C205.948 1.52042 205.54 2.20762 205.106 2.93532C204.645 3.71129 204.168 4.51315 203.182 4.51315C202.197 4.51315 201.72 3.71129 201.258 2.93532C200.825 2.20795 200.416 1.52042 199.62 1.52042C198.825 1.52042 198.415 2.20795 197.983 2.93532C197.521 3.71129 197.044 4.51315 196.059 4.51315C195.074 4.51315 194.597 3.71129 194.135 2.93532C193.702 2.20795 193.293 1.52042 192.497 1.52042C191.702 1.52042 191.293 2.20762 190.859 2.93532C190.398 3.71129 189.921 4.51315 188.935 4.51315C187.949 4.51315 187.472 3.71129 187.01 2.93532C186.577 2.20795 186.168 1.52042 185.371 1.52042C184.576 1.52042 184.167 2.20795 183.734 2.93532C183.272 3.71129 182.795 4.51315 181.81 4.51315C180.824 4.51315 180.346 3.71129 179.884 2.93532C179.45 2.20795 179.041 1.52042 178.245 1.52042C177.448 1.52042 177.039 2.20795 176.605 2.93569C176.144 3.71129 175.666 4.51315 174.68 4.51315C174.588 4.51315 174.513 4.43866 174.513 4.34657C174.513 4.25452 174.588 4.17999 174.68 4.17999C175.476 4.17999 175.886 3.49246 176.319 2.76509C176.781 1.98912 177.259 1.18726 178.245 1.18726C179.231 1.18726 179.708 1.98912 180.17 2.76509C180.604 3.49246 181.013 4.17999 181.81 4.17999C182.605 4.17999 183.014 3.49246 183.448 2.76509C183.909 1.98912 184.386 1.18726 185.371 1.18726C186.358 1.18726 186.835 1.98912 187.297 2.76471C187.73 3.49246 188.139 4.17999 188.935 4.17999C189.731 4.17999 190.14 3.49246 190.573 2.76509C191.035 1.98912 191.512 1.18726 192.497 1.18726C193.483 1.18726 193.96 1.98912 194.421 2.76509C194.854 3.49283 195.263 4.17999 196.059 4.17999C196.854 4.17999 197.263 3.49246 197.696 2.76509C198.158 1.98912 198.635 1.18726 199.62 1.18726C200.605 1.18726 201.083 1.98912 201.544 2.76509C201.977 3.49246 202.386 4.17999 203.182 4.17999C203.978 4.17999 204.387 3.49246 204.82 2.76509C205.282 1.98912 205.759 1.18726 206.744 1.18726C207.73 1.18726 208.207 1.98912 208.668 2.76509C209.102 3.49283 209.51 4.17999 210.306 4.17999C211.102 4.17999 211.511 3.49246 211.944 2.76509C212.406 1.98912 212.883 1.18726 213.868 1.18726C214.853 1.18726 215.331 1.98912 215.792 2.76509C216.225 3.49283 216.634 4.17999 217.43 4.17999C218.225 4.17999 218.635 3.49246 219.067 2.76509C219.529 1.98912 220.006 1.18726 220.991 1.18726C221.977 1.18726 222.454 1.98912 222.915 2.76509C223.349 3.49283 223.758 4.17999 224.553 4.17999C225.349 4.17999 225.758 3.49283 226.19 2.76509C226.652 1.98912 227.13 1.18726 228.114 1.18726C229.099 1.18726 229.576 1.98912 230.038 2.76509C230.471 3.49246 230.88 4.17999 231.675 4.17999C231.767 4.17999 231.842 4.25452 231.842 4.34657C231.842 4.43866 231.767 4.51315 231.675 4.51315Z" stroke="#221B38" stroke-width="0.415"/>
<path d="M262.347 0.445068H257.538V5.25438H262.347V0.445068Z" stroke="#221B38" stroke-width="0.415"/>
<path d="M77.8448 31.032H73.0354V35.841H77.8448V31.032Z" stroke="#221B38" stroke-width="0.415"/>
<path d="M6.20219 86.4071C5.96145 86.4071 5.76611 86.2116 5.76611 85.9709V12.5953C5.76611 12.3545 5.96145 12.1592 6.20219 12.1592C6.44289 12.1592 6.63824 12.3545 6.63824 12.5953V85.9709C6.63824 86.2116 6.44289 86.4071 6.20219 86.4071Z" fill="#C4B6FF"/>
<path d="M10.3963 63.6787C10.1555 63.6787 9.96021 63.4833 9.96021 63.2426V3.69463C9.96021 3.45389 10.1555 3.25854 10.3963 3.25854C10.637 3.25854 10.8324 3.45389 10.8324 3.69463V63.2426C10.8324 63.4833 10.637 63.6787 10.3963 63.6787Z" fill="#C4B6FF"/>
<path d="M274.124 29.6781H200.748C200.508 29.6781 200.313 29.483 200.313 29.2423C200.313 29.0012 200.508 28.8062 200.748 28.8062H274.124C274.365 28.8062 274.56 29.0012 274.56 29.2423C274.56 29.483 274.365 29.6781 274.124 29.6781Z" fill="#C4B6FF"/>
<path d="M283.025 33.8728H223.477C223.236 33.8728 223.041 33.6774 223.041 33.4367C223.041 33.196 223.236 33.0005 223.477 33.0005H283.025C283.265 33.0005 283.461 33.196 283.461 33.4367C283.461 33.6774 283.265 33.8728 283.025 33.8728Z" fill="#C4B6FF"/>
<path d="M230.453 190.322H203.498C203.352 190.322 203.234 190.203 203.234 190.057C203.234 189.912 203.352 189.793 203.498 189.793H230.453C230.599 189.793 230.717 189.912 230.717 190.057C230.717 190.203 230.599 190.322 230.453 190.322Z" fill="#C4B6FF" stroke="#221B38" stroke-width="0.415"/>
<path d="M233.723 194.515H211.847C211.701 194.515 211.583 194.396 211.583 194.251C211.583 194.105 211.701 193.986 211.847 193.986H233.723C233.869 193.986 233.987 194.105 233.987 194.251C233.987 194.396 233.869 194.515 233.723 194.515Z" fill="#C4B6FF" stroke="#221B38" stroke-width="0.415"/>
<path d="M80.4268 190.322H53.4721C53.326 190.322 53.2078 190.203 53.2078 190.057C53.2078 189.912 53.326 189.793 53.4721 189.793H80.4268C80.5729 189.793 80.6911 189.912 80.6911 190.057C80.6911 190.203 80.5729 190.322 80.4268 190.322Z" fill="#C4B6FF" stroke="#221B38" stroke-width="0.415"/>
<path d="M72.0778 194.515H50.2023C50.0563 194.515 49.938 194.396 49.938 194.251C49.938 194.105 50.0563 193.986 50.2023 193.986H72.0778C72.2235 193.986 72.3418 194.105 72.3418 194.251C72.3418 194.396 72.2235 194.515 72.0778 194.515Z" fill="#C4B6FF" stroke="#221B38" stroke-width="0.415"/>
<path d="M164.868 165.557V131.309H157.637V165.557H164.868Z" stroke="#221B38" stroke-width="0.415"/>
</svg>
