<svg width="22" height="22" viewBox="0 0 22 22" fill="none" xmlns="http://www.w3.org/2000/svg">
<g id="Line/scan">
<path id="Vector (Stroke)" fill-rule="evenodd" clip-rule="evenodd" d="M4.33341 2.6665C3.41294 2.6665 2.66675 3.4127 2.66675 4.33317V7.6665H0.666748V4.33317C0.666748 2.30813 2.30837 0.666504 4.33341 0.666504H7.66675V2.6665H4.33341ZM17.6667 2.6665H14.3334V0.666504H17.6667C19.6918 0.666504 21.3334 2.30813 21.3334 4.33317V7.6665H19.3334V4.33317C19.3334 3.4127 18.5872 2.6665 17.6667 2.6665ZM18.3334 11.9998H3.66675V9.99984H18.3334V11.9998ZM0.666748 17.6665V14.3332H2.66675V17.6665C2.66675 18.587 3.41294 19.3332 4.33341 19.3332H7.66675V21.3332H4.33341C2.30837 21.3332 0.666748 19.6915 0.666748 17.6665ZM19.3334 17.6665V14.3332H21.3334V17.6665C21.3334 19.6915 19.6918 21.3332 17.6667 21.3332H14.3334V19.3332H17.6667C18.5872 19.3332 19.3334 18.587 19.3334 17.6665Z" fill="white"/>
</g>
</svg>
