<svg width="24" height="26" viewBox="0 0 24 26" fill="none" xmlns="http://www.w3.org/2000/svg">
<g id="Line/user">
<path id="Vector (Stroke)" fill-rule="evenodd" clip-rule="evenodd" d="M12 3.0001C10.0109 3.0001 8.40005 4.61098 8.40005 6.59697C8.40005 8.58296 10.0109 10.1938 12 10.1938C13.9892 10.1938 15.6 8.58296 15.6 6.59697C15.6 4.61098 13.9892 3.0001 12 3.0001ZM6.00005 6.59697C6.00005 3.28402 8.68685 0.600098 12 0.600098C15.3133 0.600098 18.0001 3.28402 18.0001 6.59697C18.0001 9.90992 15.3133 12.5938 12 12.5938C8.68685 12.5938 6.00005 9.90992 6.00005 6.59697ZM8.80005 17.3907C6.81156 17.3907 5.20005 19.0019 5.20005 20.9899V22.9843L18.8001 22.9855V20.9899C18.8001 19.0019 17.1885 17.3907 15.2001 17.3907H8.80005ZM2.80005 20.9899C2.80005 17.6759 5.48661 14.9907 8.80005 14.9907H15.2001C18.5135 14.9907 21.2001 17.6759 21.2001 20.9899V25.3855H2.80005V20.9899Z" fill="#24373D"/>
</g>
</svg>
